<svg width="27" height="31" viewBox="0 0 27 31" fill="none" xmlns="http://www.w3.org/2000/svg">
<path d="M7.6349 10.2761C7.97608 13.8083 10.2606 16.1411 13.5001 16.1411C16.7395 16.1411 19.0238 13.8082 19.3651 10.2761L19.8488 6.45987C20.1488 2.71056 17.0893 0 13.5001 0C9.91086 0 6.85136 2.71056 7.15119 6.45987L7.6349 10.2761Z" fill="#735E3A"/>
<path d="M26.0461 25.5852L25.8146 24.1109C25.6206 22.8747 24.8437 21.8076 23.7272 21.2434L18.8548 18.7795C18.7023 18.7024 18.5781 18.5861 18.474 18.4563C17.0635 19.9477 15.3498 20.8249 13.5001 20.8249C11.6505 20.8249 9.93656 19.9477 8.52606 18.4563C8.42198 18.5861 8.2978 18.7024 8.14528 18.7795L3.27295 21.2434C2.15635 21.8076 1.37953 22.8747 1.1856 24.1109L0.953948 25.5852C0.871422 26.1115 0.980346 26.8839 1.45176 27.27C2.08206 27.7854 4.41039 31 13.5001 31C22.5897 31 24.9179 27.7854 25.5482 27.27C26.0198 26.8839 26.1286 26.1115 26.0461 25.5852Z" fill="#735E3A"/>
</svg>
