<svg width="24" height="28" viewBox="0 0 24 28" fill="none" xmlns="http://www.w3.org/2000/svg">
<path d="M12 0C5.74759 0 0.66095 5.08664 0.66095 11.339C0.66095 13.919 1.50642 16.3487 3.10599 18.3655C5.17713 20.9769 11.2001 27.1772 11.4554 27.4399L11.9999 28L12.5445 27.4399C12.8 27.1772 18.8247 20.9754 20.8962 18.3632C22.4943 16.348 23.339 13.9191 23.339 11.339C23.339 5.08664 18.2524 0 12 0ZM19.706 17.4194C18.0384 19.5222 13.5601 24.2 12 25.818C10.44 24.2001 5.96329 19.5237 4.29612 17.4216C2.91171 15.676 2.17994 13.5727 2.17994 11.339C2.17994 5.92421 6.58516 1.51899 12 1.51899C17.4147 1.51899 21.82 5.92421 21.8199 11.339C21.8199 13.5729 21.0889 15.6754 19.706 17.4194Z" fill="#735E3A"/>
<path d="M12 4.50116C8.29897 4.50116 5.28802 7.5121 5.28802 11.2131C5.28802 14.9141 8.29904 17.9251 12 17.9251C15.7009 17.9251 18.7119 14.9141 18.7119 11.2131C18.7119 7.51218 15.701 4.50116 12 4.50116ZM12 16.4061C9.13654 16.4061 6.80701 14.0765 6.80701 11.2131C6.80701 8.34967 9.13661 6.02015 12 6.02015C14.8634 6.02015 17.1929 8.34975 17.193 11.2131C17.193 14.0766 14.8634 16.4061 12 16.4061Z" fill="#735E3A"/>
</svg>
