<svg width="135" height="140" viewBox="0 0 135 140" fill="none" xmlns="http://www.w3.org/2000/svg">
<path d="M58.1849 16.4626C52.1092 28.344 17.1208 11.6625 7.58849 25.9134C-1.75757 39.8862 13.4964 51.6964 7.09705 83.5885C3.65651 100.743 -2.64001 106.714 1.20226 117.274C5.16787 128.169 16.9238 135.717 27.4833 138.358C49.2659 143.806 58.7553 126.578 83.2379 132.542C91.6625 134.594 94.5311 137.606 103.378 137.631C105.497 137.637 122.01 137.697 130.642 128.18C144.034 113.415 121.894 93.8642 126.097 48.5553C126.8 40.9825 128.255 32.5073 123.519 23.6708C116.956 11.4263 103.134 7.25193 97.8079 5.52745C84.8521 1.33241 65.1191 0.731612 59.8376 9.7273C58.1308 12.6351 59.552 13.7891 58.1849 16.4626Z" fill="#FFF7ED"/>
<path d="M48.6073 86.3102C45.6991 86.1265 42.9519 84.3082 41.7706 81.5081L25.1081 42.0211C23.5913 38.4254 25.3031 34.3564 28.9498 32.9133C32.6229 31.4602 38.3485 33.1717 39.9043 36.8053L56.9977 76.7205C58.6066 80.484 56.792 84.5992 52.9595 85.8937C52.0137 86.2126 49.5653 86.3708 48.6073 86.3102Z" fill="url(#paint0_linear_3_692)"/>
<path style="mix-blend-mode:multiply" opacity="0.3" d="M28.9484 32.9133C32.6215 31.4602 38.3471 33.1717 39.9028 36.8053L55.5303 73.3013C52.9146 72.6385 49.8178 72.6981 46.8458 70.1266C41.8978 65.8454 44.3321 60.3617 40.4103 55.473C38.6177 53.2396 35.3005 50.8879 28.5481 50.1817L25.1081 42.0211C23.5899 38.4254 25.3031 34.3564 28.9484 32.9133Z" fill="url(#paint1_linear_3_692)"/>
<path d="M13.1552 61.5518L3.47904 122.798C3.29524 123.979 4.1494 125.046 5.23855 124.995L53.6679 122.74L13.1552 61.5518Z" fill="url(#paint2_linear_3_692)"/>
<path d="M101.737 62.8284L15.0161 60.1818C13.7514 60.1433 12.9197 61.0991 13.1678 62.3161L27.2337 132.024C27.4775 133.241 28.6866 134.156 29.9254 134.068L114.891 128.009C115.853 127.941 116.455 127.02 116.24 125.952L103.902 64.816C103.687 63.7481 102.718 62.8582 101.737 62.8284Z" fill="url(#paint3_linear_3_692)"/>
<path d="M102.205 62.8284L15.4831 60.1828C14.2185 60.1443 13.3892 61.1001 13.6349 62.3171L27.7018 132.024C27.9455 133.241 29.1546 134.156 30.3934 134.068L115.359 128.009C116.321 127.941 116.923 127.02 116.708 125.952L104.37 64.816C104.155 63.7481 103.186 62.8582 102.205 62.8284Z" fill="url(#paint4_linear_3_692)"/>
<g style="mix-blend-mode:multiply" opacity="0.3">
<path d="M79.5736 99.765C62.504 90.6144 46.3285 97.7279 34.6818 85.9903C27.5106 78.7629 26.1938 68.5291 26.4088 60.5156L15.4831 60.1823C14.2185 60.1438 13.3892 61.0996 13.6349 62.3171L27.7018 132.024C27.9455 133.241 29.1546 134.156 30.3934 134.068L104.115 128.811C96.0566 111.555 86.9724 103.731 79.5736 99.765Z" fill="url(#paint5_linear_3_692)"/>
</g>
<path d="M112.457 125.688L31.9711 131.108C30.6338 131.198 29.3306 130.204 29.0649 128.887L16.5352 66.7862C16.269 65.4697 17.1617 64.4292 18.5244 64.4633L100.515 66.4966C101.587 66.5236 102.641 67.4871 102.875 68.6492L113.934 123.456C114.168 124.618 113.508 125.617 112.457 125.688Z" fill="#FEDEAD"/>
<path d="M112.818 125.663L32.4289 131.08C31.0931 131.17 29.7913 130.176 29.5261 128.86L17.0018 66.7978C16.7366 65.4817 17.6278 64.4407 18.9885 64.4758L100.88 66.5067C101.95 66.5332 103.005 67.4967 103.239 68.6579L114.292 123.431C114.527 124.594 113.868 125.593 112.818 125.663Z" fill="url(#paint6_linear_3_692)"/>
<path d="M59.7835 86.8701L51.0079 86.9235C50.7446 86.9235 50.4877 86.7109 50.4341 86.4425L48.9827 79.2497C48.929 78.9837 49.0992 78.7687 49.3629 78.7687L58.1591 78.8168C58.416 78.8168 58.6671 79.0323 58.7202 79.2944L60.1521 86.3925C60.2048 86.6546 60.04 86.8687 59.7835 86.8701ZM51.2887 85.9595L59.1249 85.9225L57.8836 79.7707L50.0343 79.7379L51.2887 85.9595Z" fill="#FEDEAD"/>
<path d="M70.873 86.8022L62.3782 86.8542C62.1237 86.8542 61.8741 86.6449 61.8214 86.3833L60.3934 79.3073C60.3408 79.0457 60.5051 78.8345 60.7606 78.8359L69.2749 78.884C69.5235 78.884 69.7673 79.0957 69.8194 79.3535L71.2279 86.3332C71.2801 86.5906 71.1212 86.8008 70.873 86.8022ZM62.6483 85.9051L70.2339 85.8695L69.015 79.8163L61.4153 79.7845L62.6483 85.9051Z" fill="#FEDEAD"/>
<path d="M81.6134 86.7369L73.3867 86.785C73.14 86.785 72.8992 86.5791 72.8461 86.3217L71.4405 79.3589C71.3888 79.101 71.5473 78.8937 71.7944 78.8951L80.0406 78.9404C80.2844 78.9404 80.5184 79.1486 80.5701 79.4026L81.9547 86.2741C82.0059 86.5281 81.8528 86.7354 81.6134 86.7369ZM73.6451 85.8532L80.9918 85.8186L79.7895 79.861L72.4278 79.8303L73.6451 85.8532Z" fill="#FEDEAD"/>
<path d="M92.0179 86.6734L84.0462 86.7215C83.8068 86.7215 83.5718 86.5185 83.5206 86.2655L82.1375 79.4118C82.0888 79.1583 82.2394 78.9539 82.4788 78.9553L90.4695 78.9996C90.703 78.9996 90.9331 79.2045 90.9838 79.4546L92.3489 86.2174C92.3987 86.468 92.2509 86.672 92.0179 86.6734ZM84.2949 85.8027L91.4129 85.7691L90.2291 79.9044L83.0975 79.8746L84.2949 85.8027Z" fill="#FEDEAD"/>
<path d="M102.105 86.6117L94.3766 86.6599C94.145 86.6599 93.9164 86.4602 93.8661 86.2106L92.5045 79.4632C92.4557 79.2135 92.602 79.0125 92.834 79.0139L100.58 79.0567C100.807 79.0567 101.031 79.2583 101.081 79.5046L102.424 86.1644C102.474 86.4097 102.334 86.6103 102.105 86.6117ZM94.6135 85.7541L101.516 85.7214L100.35 79.9466L93.4356 79.9178L94.6135 85.7541Z" fill="#FEDEAD"/>
<path d="M38.4631 96.8163L29.1093 97.002C28.967 96.9999 28.8296 96.9507 28.7191 96.8622C28.6087 96.7737 28.5316 96.6512 28.5003 96.5142L26.9992 89.0756C26.9436 88.801 27.1269 88.5758 27.4082 88.5739L36.7845 88.4969C36.9244 88.5013 37.0588 88.5515 37.1666 88.6397C37.2743 88.7278 37.3491 88.8489 37.3793 88.9837L38.859 96.3156C38.9136 96.5869 38.7366 96.811 38.4631 96.8163ZM29.4159 95.9986L37.7698 95.8442L36.4862 89.485L28.1176 89.5648L29.4159 95.9986Z" fill="#FEDEAD"/>
<path d="M50.2727 96.5816L41.2279 96.7615C40.9564 96.7668 40.6916 96.5518 40.6375 96.2805L39.1618 88.9689C39.1071 88.6985 39.2836 88.4777 39.5557 88.4753L48.6238 88.4012C48.8886 88.4012 49.147 88.6134 49.2006 88.8823L50.6559 96.0929C50.7076 96.356 50.5369 96.5763 50.2727 96.5816ZM41.5214 95.7725L49.5989 95.6229L48.3367 89.3696L40.2436 89.447L41.5214 95.7725Z" fill="#FEDEAD"/>
<path d="M61.6976 96.3545L52.9463 96.5286C52.6835 96.5339 52.4271 96.3222 52.3735 96.0562L50.9221 88.8634C50.8684 88.5974 51.0386 88.3824 51.3014 88.3781L60.0731 88.3064C60.3291 88.3064 60.5797 88.5152 60.6328 88.7773L62.0632 95.8686C62.1178 96.1327 61.9535 96.3496 61.6976 96.3545ZM53.2276 95.5574L61.0423 95.4131L59.8006 89.2608L51.9713 89.3358L53.2276 95.5574Z" fill="#FEDEAD"/>
<path d="M72.7563 96.1347L64.2854 96.3031C64.0314 96.3084 63.7823 96.1001 63.7296 95.8389L62.3016 88.7625C62.249 88.5008 62.4123 88.2872 62.6673 88.2853L71.1582 88.2156C71.4064 88.2156 71.6496 88.421 71.7013 88.6793L73.1103 95.659C73.162 95.9168 73.0035 96.1299 72.7563 96.1347ZM64.5536 95.3482L72.1187 95.2083L70.8969 89.155L63.3186 89.2277L64.5536 95.3482Z" fill="url(#paint7_linear_3_692)"/>
<path d="M83.4661 95.922L75.2623 96.0851C75.0185 96.0899 74.7748 95.885 74.7226 95.6276L73.3175 88.6648C73.2653 88.4074 73.4233 88.1972 73.67 88.1948L81.8933 88.1274C82.1336 88.1274 82.3701 88.33 82.4213 88.5839L83.8073 95.4535C83.8585 95.7075 83.7054 95.9167 83.4661 95.922ZM75.5192 95.1471L82.8454 95.0119L81.6432 89.0539L74.3038 89.1241L75.5192 95.1471Z" fill="url(#paint8_linear_3_692)"/>
<path d="M93.8427 95.7157L85.893 95.874C85.6546 95.8788 85.4196 95.6772 85.3689 95.4237L83.9858 88.57C83.9346 88.3165 84.0867 88.1097 84.327 88.1078L92.2958 88.0424C92.5288 88.0424 92.7585 88.242 92.8087 88.4916L94.1738 95.2549C94.2225 95.505 94.0753 95.7114 93.8427 95.7157ZM86.1397 94.9489L93.2387 94.8176L92.0554 88.9525L84.9433 89.0208L86.1397 94.9489Z" fill="url(#paint9_linear_3_692)"/>
<path d="M103.902 95.5161L96.1951 95.669C95.964 95.6738 95.7358 95.4766 95.6856 95.2255L94.3239 88.4781C94.2752 88.229 94.4215 88.025 94.6521 88.0231L102.378 87.9601C102.603 87.9601 102.827 88.1563 102.876 88.4026L104.22 95.062C104.27 95.3083 104.128 95.5112 103.902 95.5161ZM96.4311 94.7584L103.314 94.6314L102.148 88.8562L95.2532 88.9221L96.4311 94.7584Z" fill="url(#paint10_linear_3_692)"/>
<path d="M40.442 106.62L31.1135 106.935C30.9719 106.935 30.8345 106.887 30.724 106.8C30.6136 106.712 30.5367 106.59 30.5061 106.454L29.0049 99.0156C28.9494 98.7404 29.1322 98.5124 29.4125 98.5062L38.763 98.3008C38.9023 98.3034 39.0367 98.3523 39.1443 98.4396C39.252 98.5269 39.3267 98.6474 39.3563 98.7818L40.836 106.115C40.8906 106.384 40.7146 106.611 40.442 106.62ZM31.4192 105.922L39.7497 105.653L38.4665 99.2946L30.1214 99.4894L31.4192 105.922Z" fill="#FEDEAD"/>
<path d="M52.2184 106.223L43.199 106.527C42.9285 106.536 42.6627 106.325 42.6101 106.054L41.1338 98.7404C41.0792 98.4701 41.2552 98.2464 41.5239 98.2402L50.5652 98.0415C50.8295 98.0357 51.0869 98.2474 51.1405 98.5139L52.5958 105.724C52.6538 105.991 52.4822 106.214 52.2184 106.223ZM43.4916 105.533L51.5466 105.273L50.2849 99.0194L42.2152 99.2075L43.4916 105.533Z" fill="#FEDEAD"/>
<path d="M63.6117 105.839L54.8848 106.133C54.623 106.142 54.367 105.934 54.3134 105.668L52.8615 98.4749C52.8079 98.2089 52.9775 97.9886 53.2398 97.9828L61.9872 97.7904C62.2427 97.7846 62.4928 97.9929 62.5454 98.2551L63.9768 105.348C64.0305 105.611 63.8671 105.831 63.6117 105.839ZM55.1646 105.156L62.9574 104.904L61.7161 98.752L53.9087 98.9343L55.1646 105.156Z" fill="#FEDEAD"/>
<path d="M74.6417 105.468L66.1941 105.752C65.9406 105.761 65.6925 105.556 65.6398 105.294L64.2084 98.218C64.1553 97.9563 64.3186 97.7399 64.5726 97.7341L73.0401 97.548C73.2873 97.5427 73.5276 97.7476 73.5822 98.0054L74.9907 104.985C75.0444 105.243 74.8854 105.459 74.6417 105.468ZM66.4613 104.791L74.0049 104.547L72.7837 98.4936L65.2269 98.6702L66.4613 104.791Z" fill="#FEDEAD"/>
<path d="M85.3187 105.107L77.1374 105.383C76.8936 105.392 76.6498 105.191 76.6011 104.932L75.196 97.9689C75.1438 97.7115 75.3013 97.4984 75.547 97.4931L83.7478 97.3132C83.9877 97.3079 84.2237 97.5095 84.2749 97.7635L85.66 104.633C85.7087 104.887 85.5586 105.099 85.3187 105.107ZM77.3933 104.437L84.6995 104.201L83.4973 98.2435L76.1779 98.4143L77.3933 104.437Z" fill="#FEDEAD"/>
<path d="M95.6676 104.759L87.7398 105.026C87.5024 105.034 87.2678 104.834 87.2167 104.582L85.8335 97.7278C85.7848 97.4748 85.9344 97.2651 86.1748 97.2598L94.1216 97.0852C94.3537 97.0799 94.5828 97.2776 94.6335 97.5287L95.9986 104.291C96.0445 104.542 95.8982 104.751 95.6676 104.759ZM87.9845 104.094L95.0645 103.866L93.8808 98.0006L86.7881 98.1661L87.9845 104.094Z" fill="#FEDEAD"/>
<path d="M105.698 104.42L98.0121 104.68C97.7815 104.687 97.5539 104.491 97.5036 104.242L96.142 97.4945C96.0932 97.2448 96.2395 97.0385 96.4691 97.0337L104.172 96.8643C104.397 96.8595 104.621 97.0568 104.67 97.3011L106.014 103.961C106.066 104.207 105.924 104.413 105.698 104.42ZM98.2466 103.763L105.11 103.541L103.944 97.7658L97.0702 97.9265L98.2466 103.763Z" fill="#FEDEAD"/>
<path d="M42.4204 116.424L33.1178 116.867C32.9769 116.869 32.8396 116.823 32.7292 116.737C32.6188 116.651 32.542 116.529 32.5118 116.394L31.0106 108.955C30.9551 108.68 31.1374 108.449 31.4172 108.439L40.7414 108.105C41.0139 108.095 41.2777 108.307 41.3337 108.578L42.8134 115.91C42.868 116.181 42.692 116.411 42.4204 116.424ZM33.422 115.847L41.7296 115.462L40.4459 109.103L32.1237 109.413L33.422 115.847Z" fill="#FEDEAD"/>
<path d="M54.1652 115.865L45.1706 116.293C44.9005 116.306 44.6373 116.097 44.5827 115.827L43.1069 108.515C43.0523 108.245 43.2278 108.018 43.4969 108.008L52.5134 107.685C52.7767 107.676 53.0336 107.884 53.0877 108.151L54.5425 115.361C54.5966 115.626 54.427 115.852 54.1652 115.865ZM45.4612 115.292L53.4938 114.921L52.2316 108.667L44.1873 108.967L45.4612 115.292Z" fill="#FEDEAD"/>
<path d="M65.5247 115.324L56.8222 115.738C56.5614 115.75 56.3059 115.546 56.2523 115.279L54.8019 108.087C54.7483 107.821 54.9169 107.597 55.1788 107.588L63.9012 107.276C64.1562 107.267 64.4058 107.472 64.4585 107.734L65.8904 114.827C65.943 115.089 65.7802 115.312 65.5247 115.324ZM57.1006 114.754L64.8719 114.395L63.6302 108.243L55.8447 108.532L57.1006 114.754Z" fill="#FEDEAD"/>
<path d="M76.5231 114.8L68.0989 115.201C67.8464 115.213 67.5987 115.009 67.5456 114.749L66.1176 107.673C66.0649 107.411 66.2278 107.192 66.4808 107.183L74.9249 106.881C75.1716 106.872 75.4124 107.073 75.4656 107.332L76.8741 114.311C76.9262 114.57 76.7693 114.788 76.5231 114.8ZM68.3651 114.233L75.8878 113.886L74.666 107.832L67.1297 108.113L68.3651 114.233Z" fill="#FEDEAD"/>
<path d="M87.1713 114.292L79.0129 114.681C78.7691 114.692 78.5254 114.493 78.4766 114.236L77.0715 107.273C77.0199 107.016 77.1764 106.8 77.4216 106.792L85.5995 106.499C85.8389 106.49 86.0739 106.691 86.1251 106.943L87.5126 113.811C87.5614 114.066 87.4117 114.281 87.1713 114.292ZM79.2674 113.729L86.5531 113.392L85.3509 107.434L78.0544 107.706L79.2674 113.729Z" fill="#FEDEAD"/>
<path d="M97.4924 113.801L89.5866 114.178C89.3496 114.189 89.1161 113.993 89.0649 113.739L87.6818 106.884C87.633 106.631 87.7793 106.419 88.0196 106.41L95.944 106.127C96.1756 106.118 96.4043 106.314 96.4545 106.564L97.8196 113.327C97.8698 113.579 97.7235 113.79 97.4924 113.801ZM89.8303 113.241L96.8903 112.914L95.7066 107.05L88.6339 107.313L89.8303 113.241Z" fill="#FEDEAD"/>
<path d="M107.496 113.325L99.8316 113.69C99.602 113.701 99.3748 113.507 99.3246 113.257L97.9629 106.509C97.9142 106.26 98.0604 106.051 98.2886 106.043L105.971 105.768C106.196 105.76 106.418 105.953 106.468 106.201L107.812 112.86C107.861 113.106 107.72 113.314 107.496 113.325ZM100.065 112.768L106.91 112.451L105.746 106.676L98.8873 106.932L100.065 112.768Z" fill="#FEDEAD"/>
<path d="M44.3989 126.228L35.1225 126.799C34.9823 126.803 34.8449 126.759 34.7344 126.673C34.6238 126.588 34.5471 126.467 34.5175 126.332L33.0164 118.894C32.9613 118.618 33.1426 118.384 33.4215 118.371L42.7198 117.908C42.8577 117.906 42.9919 117.952 43.0997 118.037C43.2074 118.122 43.282 118.241 43.3107 118.374L44.7904 125.706C44.845 125.978 44.6699 126.211 44.3989 126.228ZM35.4253 125.775L43.709 125.275L42.4258 118.916L34.1275 119.343L35.4253 125.775Z" fill="#FEDEAD"/>
<path d="M56.1099 125.507L47.1393 126.059C46.8702 126.076 46.6079 125.87 46.5542 125.599L45.078 118.288C45.0234 118.018 45.1979 117.788 45.468 117.774L54.4591 117.327C54.7214 117.314 54.9779 117.519 55.032 117.786L56.4868 124.996C56.5409 125.259 56.3722 125.49 56.1099 125.507ZM47.4318 125.052L55.442 124.571L54.1798 118.317L46.155 118.727L47.4318 125.052Z" fill="#FEDEAD"/>
<path d="M67.4398 124.808L58.7617 125.343C58.5013 125.359 58.2468 125.156 58.1932 124.89L56.7413 117.698C56.6877 117.432 56.8559 117.206 57.1167 117.193L65.8153 116.76C66.0698 116.747 66.3185 116.949 66.3716 117.211L67.803 124.305C67.8557 124.567 67.6933 124.793 67.4398 124.808ZM59.0405 124.352L66.7923 123.886L65.5511 117.734L57.7871 118.131L59.0405 124.352Z" fill="#FEDEAD"/>
<path d="M78.4059 124.132L70.0057 124.65C69.7536 124.666 69.5064 124.466 69.4538 124.205L68.0258 117.13C67.9732 116.868 68.135 116.646 68.3876 116.634L76.8078 116.215C77.0515 116.202 77.2953 116.402 77.348 116.66L78.7565 123.639C78.8086 123.896 78.6516 124.117 78.4059 124.132ZM70.2704 123.676L77.7721 123.224L76.5533 117.171L69.0379 117.556L70.2704 123.676Z" fill="#FEDEAD"/>
<path d="M34.1787 77.4881L24.6469 77.4193L24.2402 75.4048L33.7774 75.4996L34.1787 77.4881Z" fill="url(#paint11_linear_3_692)"/>
<path d="M46.2076 77.5742L36.9947 77.5083L36.5954 75.528L45.8132 75.6194L46.2076 77.5742Z" fill="url(#paint12_linear_3_692)"/>
<path d="M57.8402 77.6579L48.9305 77.5939L48.5375 75.6467L57.4521 75.7352L57.8402 77.6579Z" fill="url(#paint13_linear_3_692)"/>
<path d="M69.095 77.7387L60.4739 77.6772L60.0873 75.7617L68.7132 75.8473L69.095 77.7387Z" fill="url(#paint14_linear_3_692)"/>
<path d="M79.9904 77.8171L71.6443 77.757L71.264 75.8728L79.615 75.956L79.9904 77.8171Z" fill="url(#paint15_linear_3_692)"/>
<path d="M90.5436 77.8932L82.4593 77.8349L82.0849 75.9806L90.1741 76.0609L90.5436 77.8932Z" fill="url(#paint16_linear_3_692)"/>
<path d="M100.77 77.9667L92.9354 77.9105L92.5674 76.085L100.406 76.1629L100.77 77.9667Z" fill="url(#paint17_linear_3_692)"/>
<path d="M99.9116 73.7116L23.6879 72.6668L22.9195 68.859L99.2237 70.3026L99.9116 73.7116Z" fill="#FEDEAD"/>
<g style="mix-blend-mode:multiply" opacity="0.3">
<path d="M79.5735 99.765C62.504 90.6144 46.3285 97.7278 34.6818 85.9903C28.7095 79.9712 26.7944 71.8481 26.4488 64.6616L18.9407 64.4754C17.6063 64.4422 16.7317 65.4615 16.9906 66.7526L29.5349 128.903C29.7957 130.194 31.0726 131.169 32.3826 131.08L102.919 126.33C95.1698 110.796 86.6087 103.536 79.5735 99.765Z" fill="#FEDEAD"/>
</g>
<path d="M18.9164 25.0774C19.0589 25.0777 19.2013 25.0876 19.3425 25.1072L29.6421 24.9956V51.4184L19.6964 51.2842C19.4415 51.3482 19.1794 51.3805 18.9164 51.3804C15.3866 51.3804 12.5248 45.4917 12.5248 38.2282C12.5248 30.9647 15.3881 25.0774 18.9164 25.0774Z" fill="url(#paint18_linear_3_692)"/>
<path d="M29.6421 24.9956C25.7419 33.7941 25.7419 42.5613 29.6421 51.4184L106.257 75.7223L107.05 1.5614L29.6421 24.9956Z" fill="url(#paint19_linear_3_692)"/>
<path style="mix-blend-mode:multiply" opacity="0.3" d="M85.5766 53.9231C78.2918 51.2 76.0287 40.7733 67.5709 40.4221C60.9351 40.147 58.9357 46.5043 52.4339 45.8183C45.7796 45.1165 44.6582 38.0363 37.2062 35.5407C33.8174 34.4059 30.272 34.6157 26.8305 35.5748C26.3683 40.8296 27.3055 46.1108 29.6421 51.4184L106.257 75.7223L101.723 50.542C94.1718 54.89 89.1078 55.2431 85.5766 53.9231Z" fill="url(#paint20_linear_3_692)"/>
<path d="M109.973 76.6978C120.266 76.6978 128.61 59.5284 128.61 38.3489C128.61 17.1694 120.266 0 109.973 0C99.6807 0 91.3368 17.1694 91.3368 38.3489C91.3368 59.5284 99.6807 76.6978 109.973 76.6978Z" fill="url(#paint21_linear_3_692)"/>
<path d="M109.973 75.3967C112.158 75.3967 114.306 74.4923 116.355 72.7087C118.441 70.8933 120.328 68.2669 121.962 64.903C125.398 57.832 127.291 48.4038 127.291 38.3504C127.291 28.2969 125.398 18.8688 121.962 11.7977C120.327 8.43386 118.441 5.80793 116.355 3.99254C114.308 2.20841 112.158 1.30408 109.973 1.30408C107.788 1.30408 105.641 2.20841 103.591 3.99254C101.506 5.80793 99.6191 8.43386 97.9848 11.7977C96.5481 14.7541 95.3814 18.1232 94.5097 21.778C93.2967 26.8639 96.8011 32.173 96.8011 38.0223C96.8011 44.242 93.3791 50.5535 94.7457 55.8852C95.5876 59.1711 96.6734 62.2103 97.9834 64.9059C99.6181 68.2698 101.505 70.8962 103.59 72.7116C105.641 74.4923 107.788 75.3967 109.973 75.3967Z" fill="url(#paint22_linear_3_692)"/>
<mask id="mask0_3_692" style="mask-type:luminance" maskUnits="userSpaceOnUse" x="92" y="1" width="36" height="75">
<path d="M109.973 75.3967C112.158 75.3967 114.306 74.4923 116.355 72.7087C118.441 70.8933 120.328 68.2669 121.962 64.903C125.398 57.832 127.291 48.4038 127.291 38.3504C127.291 28.2969 125.398 18.8688 121.962 11.7977C120.327 8.43386 118.441 5.80793 116.355 3.99254C114.308 2.20841 112.158 1.30408 109.973 1.30408C107.788 1.30408 105.641 2.20841 103.592 3.99254C101.506 5.80793 99.6191 8.43386 97.9848 11.7977C94.5487 18.8688 92.6561 28.2993 92.6561 38.3504C92.6561 48.4014 94.5487 57.832 97.9848 64.903C99.6196 68.2669 101.506 70.8933 103.592 72.7087C105.641 74.4923 107.788 75.3967 109.973 75.3967Z" fill="white"/>
</mask>
<g mask="url(#mask0_3_692)">
<path d="M111.507 38.8521C111.507 48.5688 104.987 56.2826 97.0566 56.0858C89.2497 55.8934 83.0087 48.0801 83.0087 38.6346C83.0087 29.1892 89.2492 21.4726 97.0566 21.398C104.987 21.322 111.507 29.1363 111.507 38.8521Z" fill="url(#paint23_linear_3_692)"/>
<path style="mix-blend-mode:multiply" opacity="0.3" d="M110.254 38.6938C110.254 45.9092 107.077 51.6373 103.214 51.4891C99.4109 51.3448 96.3687 45.5446 96.3687 38.5307C96.3687 31.5169 99.4085 25.7883 103.214 25.7349C107.077 25.6767 110.254 31.4794 110.254 38.6938Z" fill="url(#paint24_linear_3_692)"/>
</g>
<path d="M31.7493 78.164C31.7493 78.164 22.7245 62.7456 10.5195 88.9659C1.01553 109.383 7.15555 132.098 29.1434 138.33C51.1312 144.563 85.4708 131.975 74.6919 123.104C51.8284 104.287 34.4751 87.6075 31.7493 78.164Z" fill="url(#paint25_linear_3_692)"/>
<g style="mix-blend-mode:multiply" opacity="0.35">
<path d="M20.4248 92.0204C19.7822 93.8877 19.6369 99.2079 19.908 105.326C20.1518 110.784 19.6477 113.637 28.4482 117.607C31.465 118.968 33.5512 123.283 38.1696 125.854C40.266 127.018 48.1519 131.232 58.3395 129.529C65.0801 128.402 70.0988 125.141 73.4784 122.101C51.218 103.696 34.4268 87.4396 31.7493 78.1644C31.7493 78.1644 28.4516 72.5364 23.1487 73.8679C24.4353 75.2807 24.8721 79.0933 20.4248 92.0204Z" fill="url(#paint26_linear_3_692)"/>
</g>
<g style="mix-blend-mode:multiply" opacity="0.13">
<path d="M64.3356 132.129C53.9375 137.794 36.5715 141.251 23.6333 131.77C11.6521 122.991 10.5859 108.288 10.1866 103.802C9.48841 95.961 11.0412 89.1305 13.28 83.6241C12.3805 85.1759 11.4595 86.9466 10.5195 88.9635C1.01553 109.381 7.15555 132.095 29.1434 138.328C50.7851 144.463 84.3963 132.363 75.1667 123.522C72.5452 126.444 69.0043 129.585 64.3356 132.129Z" fill="url(#paint27_linear_3_692)"/>
</g>
<path style="mix-blend-mode:multiply" opacity="0.3" d="M47.9545 133.811C47.6463 133.811 47.3372 133.807 47.0242 133.801C38.9936 133.624 27.7178 130.992 19.6126 119.459C12.7651 109.718 13.6817 98.7269 15.6562 91.2186C17.795 83.0945 21.5978 77.1904 21.6349 77.1317C21.6554 77.1002 21.6877 77.078 21.7248 77.07C21.7431 77.0661 21.7621 77.0657 21.7806 77.069C21.7991 77.0723 21.8167 77.0791 21.8326 77.0891C21.8484 77.0991 21.862 77.1121 21.8728 77.1273C21.8835 77.1426 21.8911 77.1597 21.8951 77.1778C21.8991 77.196 21.8994 77.2147 21.8961 77.2329C21.8928 77.2512 21.8859 77.2686 21.8757 77.2842C21.8377 77.3424 18.0554 83.2148 15.9307 91.2975C13.9732 98.7447 13.064 109.648 19.8471 119.299C27.8856 130.734 39.0667 133.345 47.0306 133.518C55.6726 133.708 62.4855 131.161 62.5537 131.135C62.5713 131.128 62.5901 131.125 62.609 131.125C62.628 131.125 62.6467 131.129 62.6641 131.137C62.6814 131.144 62.6971 131.155 62.7102 131.168C62.7233 131.182 62.7336 131.198 62.7404 131.215C62.7472 131.233 62.7504 131.251 62.7498 131.27C62.7492 131.289 62.7449 131.307 62.737 131.324C62.7292 131.341 62.718 131.357 62.7041 131.369C62.6902 131.382 62.6739 131.392 62.6561 131.398C62.5903 131.423 56.2021 133.81 47.9545 133.811Z" fill="url(#paint28_linear_3_692)"/>
<path d="M91.0794 132.352C90.5065 131.744 89.4793 129.124 91.3524 128.585C93.2358 128.044 94.2825 127.358 96.8757 125.307C99.4689 123.256 100.135 125.018 96.472 128.349C92.8092 131.679 91.8946 133.218 91.0794 132.352Z" fill="url(#paint29_linear_3_692)"/>
<path d="M88.6256 128.526L90.1682 129.855C90.3251 129.99 90.5221 130.072 90.7297 130.088C90.9374 130.103 91.1447 130.053 91.3207 129.943C91.4039 129.891 91.4735 129.821 91.5241 129.737C91.5746 129.654 91.6046 129.56 91.6117 129.464C91.6188 129.367 91.6027 129.27 91.5648 129.18C91.5269 129.091 91.4681 129.011 91.3934 128.948L89.1385 127.045L88.6256 128.526Z" fill="url(#paint30_linear_3_692)"/>
<path d="M42.4219 115.729C39.6961 118.086 45.3856 125.811 54.4747 123.307C65.4887 120.272 79.4965 121.636 88.9391 129.224C89.4866 128.743 90.8434 127.988 90.2228 127.369C81.6909 118.858 73.7928 113.973 67.2482 112.662C57.3546 110.678 50.183 109.021 42.4219 115.729Z" fill="url(#paint31_linear_3_692)"/>
<g style="mix-blend-mode:multiply" opacity="0.24">
<path d="M74.3755 118.965C75.9731 119.882 76.3139 118.019 77.1383 116.793C73.5998 114.65 70.2772 113.267 67.2482 112.66C57.3546 110.678 50.1844 109.021 42.4219 115.729C39.6961 118.086 45.3856 125.811 54.4747 123.307C57.7617 122.401 61.3173 121.898 64.9368 121.824C67.8483 120.016 70.2304 115.873 74.3755 118.965Z" fill="#822D03"/>
</g>
<path d="M40.813 123.777L40.2534 123.988C40.2534 123.988 36.6344 120.617 35.9894 119.758C35.2025 118.71 44.0644 116.037 46.9423 112.54C49.9651 108.866 47.5761 116.903 47.5761 116.903L40.813 123.777Z" fill="url(#paint32_linear_3_692)"/>
<path d="M37.5309 90.701C37.5309 90.701 40.7438 91.134 44.2667 97.2993C46.9155 101.934 52.6665 105.773 52.6665 105.773L53.2569 109.419L48.4839 110.247L46.7775 109.137L42.1201 99.36L37.5309 90.701Z" fill="url(#paint33_linear_3_692)"/>
<path d="M31.2998 90.308C31.2998 90.308 23.3798 91.27 23.2096 100.263C23.0526 108.561 26.0861 111.775 33.5322 118.694C34.2806 119.389 35.495 119.39 35.5847 119.49C36.0683 120.028 36.5582 120.59 37.0541 121.174C43.7173 114.864 51.2302 112.728 51.2302 112.728C51.2302 112.728 44.2838 98.547 41.2309 93.8454C38.0828 88.9981 33.3347 89.826 31.2998 90.308Z" fill="url(#paint34_linear_3_692)"/>
<g style="mix-blend-mode:multiply" opacity="0.2">
<path d="M44.4505 111.254C41.107 113.018 36.3691 112.819 34.6267 110.635C33.3147 108.99 33.1022 108.377 31.5065 105.794C30.2213 103.716 29.5958 103.383 26.7881 101.634C25.7282 100.973 24.5259 100.018 23.3466 98.5854C23.2681 99.1414 23.2236 99.7015 23.2135 100.263C23.0565 108.561 26.09 111.775 33.5361 118.694C34.2844 119.389 35.4989 119.39 35.5886 119.49C36.0722 120.028 36.562 120.59 37.058 121.174C43.7212 114.864 51.2341 112.728 51.2341 112.728C51.2341 112.728 50.0811 110.497 48.5527 107.36C47.444 109.193 46.5952 110.121 44.4505 111.254Z" fill="url(#paint35_linear_3_692)"/>
</g>
<path d="M38.9897 111.517C38.9897 111.517 40.4908 111.586 41.5565 111.162C42.6223 110.739 42.535 110.642 43.7617 110.489C44.9546 110.34 47.3036 109.641 45.9736 108.448C44.4934 107.119 41.9558 107.492 41.2265 108.374C40.5239 109.224 39.3056 109.764 39.3056 109.764L38.9897 111.517Z" fill="url(#paint36_linear_3_692)"/>
<path d="M25.6029 94.7898C25.6029 94.7898 21.2044 95.2953 23.7708 109.269C25.1017 116.517 31.682 115.497 39.6278 112.502C40.1641 111.391 39.4733 109.038 39.4733 109.038C39.4733 109.038 29.6017 113.054 29.3462 107.195C29.06 100.628 28.1688 94.0961 25.6029 94.7898Z" fill="url(#paint37_linear_3_692)"/>
<path d="M33.1441 93.2813C31.2617 93.2813 29.3491 91.906 29.2575 91.8382C29.2491 91.833 29.242 91.8262 29.2364 91.8182C29.2309 91.8101 29.2271 91.801 29.2252 91.7915C29.2234 91.7819 29.2236 91.7721 29.2258 91.7626C29.228 91.7532 29.2321 91.7442 29.238 91.7364C29.2438 91.7286 29.2513 91.722 29.2598 91.7171C29.2683 91.7123 29.2778 91.7092 29.2876 91.7081C29.2973 91.707 29.3073 91.7079 29.3167 91.7108C29.3261 91.7136 29.3348 91.7183 29.3423 91.7247C29.3677 91.7429 31.8814 93.5526 33.9164 93.0499C34.4804 92.9109 34.8661 92.6386 35.0635 92.2408C35.4394 91.4837 35.0148 90.5125 35.0094 90.5029C35.0056 90.4944 35.0036 90.4853 35.0034 90.476C35.0032 90.4668 35.0048 90.4576 35.0082 90.449C35.0116 90.4404 35.0167 90.4325 35.0232 90.4258C35.0297 90.4191 35.0374 90.4138 35.046 90.41C35.0546 90.4063 35.0638 90.4043 35.0732 90.4041C35.0825 90.4039 35.0919 90.4055 35.1006 90.4088C35.1093 90.4122 35.1173 90.4172 35.1241 90.4236C35.1309 90.43 35.1363 90.4376 35.1401 90.4461C35.1591 90.4884 35.5964 91.487 35.1922 92.3029C34.9753 92.7396 34.5585 93.0369 33.9515 93.1865C33.6873 93.2504 33.4161 93.2822 33.1441 93.2813Z" fill="#0203E3"/>
<path d="M35.943 119.202C35.9285 119.203 35.9142 119.198 35.9021 119.191C35.89 119.183 35.8807 119.171 35.8754 119.158C35.8701 119.144 35.869 119.13 35.8724 119.116C35.8758 119.102 35.8834 119.089 35.8943 119.08C35.9655 119.017 43.0552 112.755 49.4556 111.211C49.4647 111.209 49.4742 111.208 49.4835 111.209C49.4928 111.211 49.5017 111.214 49.5098 111.219C49.5178 111.224 49.5248 111.23 49.5303 111.237C49.5358 111.245 49.5398 111.253 49.5419 111.262C49.5463 111.281 49.5433 111.3 49.5336 111.316C49.5238 111.332 49.508 111.343 49.4897 111.348C43.124 112.884 36.0605 119.122 35.9898 119.185C35.977 119.196 35.9603 119.202 35.943 119.202Z" fill="#2418E9"/>
<path d="M31.0214 86.0861C31.0214 86.0861 31.3193 89.473 31.0501 90.1142C30.781 90.7554 31.6318 91.6299 33.3147 91.9666C34.9977 92.3033 33.6653 88.5898 33.6653 88.5898L31.0214 86.0861Z" fill="url(#paint38_linear_3_692)"/>
<path d="M35.8694 86.3381C37.6182 85.3967 37.5817 80.9794 36.5924 80.6432C36.0245 80.4508 35.7451 81.8116 33.8715 82.5995C32.4123 83.2133 31.3739 82.8953 30.842 83.7424C30.5919 84.1402 30.4963 84.7276 30.5772 85.2216C30.6192 85.4761 30.7352 85.8056 31.0126 86.4463C31.2564 87.0144 31.2388 86.9927 31.3163 87.1592C31.5016 87.5589 31.877 88.2444 32.6468 89.1073C32.7732 88.8091 32.9256 88.5223 33.1022 88.2501C33.1812 88.1284 33.4976 87.6551 33.9183 87.2881C34.6847 86.6185 35.3678 86.6079 35.8694 86.3381Z" fill="url(#paint39_linear_3_692)"/>
<path d="M31.6206 88.2045C31.6206 88.2045 32.2748 89.7856 34.0655 89.952C35.6681 90.1021 36.472 86.6301 35.5808 85.7248C35.2834 85.4227 34.6233 85.212 34.048 85.2769C33.7067 85.3149 33.5765 85.4309 33.0203 85.4828C32.5074 85.5309 32.3772 85.4549 32.208 85.5545C31.9969 85.6795 31.799 86.0355 31.9423 87.1116C31.6893 86.7614 31.3451 86.5877 31.0682 86.6666C30.9725 86.6995 30.8881 86.7582 30.8244 86.8359C30.5368 87.2025 30.8239 87.7735 31.6206 88.2045Z" fill="url(#paint40_linear_3_692)"/>
<path d="M40.0447 113.396C40.0087 113.4 39.9749 113.415 39.947 113.438C39.9192 113.461 39.8986 113.491 39.8877 113.525C39.8877 113.535 39.913 113.889 39.9121 113.9C39.9087 113.94 39.9191 113.98 39.9416 114.013C39.9641 114.047 39.9973 114.072 40.0359 114.084L46.7702 116.243L59.3555 111.379L53.3758 111.831L40.0447 113.396Z" fill="#3A2602"/>
<path d="M40.0418 113.348C40.0014 113.353 39.9641 113.372 39.9361 113.401C39.908 113.431 39.8909 113.468 39.8874 113.508C39.884 113.549 39.8944 113.589 39.9171 113.622C39.9397 113.656 39.9732 113.68 40.012 113.693L46.7463 115.851L59.333 110.988L53.3534 111.439L40.0418 113.348Z" fill="#0508E5"/>
<path d="M46.448 115.754L47.4513 102.801C47.4591 102.7 47.5012 102.605 47.5707 102.531C47.6403 102.456 47.7332 102.408 47.8345 102.392L62.9057 100.064C62.9724 100.054 63.0405 100.058 63.1052 100.077C63.1699 100.096 63.2295 100.129 63.2797 100.174C63.33 100.218 63.3696 100.273 63.3957 100.334C63.4218 100.396 63.4338 100.462 63.4308 100.528L62.8647 112.602C62.8601 112.703 62.8208 112.8 62.7533 112.876C62.6859 112.953 62.5942 113.004 62.4932 113.023L46.836 115.883L46.448 115.754Z" fill="url(#paint41_linear_3_692)"/>
<path d="M46.7702 116.243L47.8053 103.004C47.8131 102.903 47.8552 102.808 47.9247 102.733C47.9943 102.659 48.0872 102.61 48.1885 102.595L63.2597 100.268C63.3263 100.257 63.3944 100.262 63.4591 100.281C63.5238 100.299 63.5834 100.332 63.6337 100.377C63.684 100.421 63.7236 100.476 63.7497 100.537C63.7758 100.599 63.7878 100.665 63.7847 100.731L63.2187 112.805C63.214 112.906 63.1751 113.002 63.1081 113.078C63.0411 113.155 62.9501 113.206 62.8496 113.225L46.7702 116.243Z" fill="#3A2602"/>
<path d="M46.7702 116.243L62.8496 113.227C62.9501 113.208 63.0411 113.156 63.1081 113.08C63.1751 113.004 63.214 112.907 63.2187 112.807L63.3893 109.165C58.5998 111.849 52.5973 112.19 47.0033 113.267L46.7702 116.243Z" fill="#2F1F02"/>
<path d="M74.0035 113.529C73.7841 112.776 73.298 111.942 75.0322 111.337C76.291 110.896 78.4776 110.754 80.4653 110.654C83.2501 110.513 83.8907 112.157 79.8207 113.203C77.1549 113.887 74.3165 114.6 74.0035 113.529Z" fill="url(#paint42_linear_3_692)"/>
<path d="M76.174 112.376C76.1998 112.797 75.9302 113.128 75.5728 113.178C74.7489 113.294 74.9035 112.876 74.8771 112.457C74.8508 112.038 74.5178 111.743 75.4783 111.655C75.8351 111.619 76.1477 111.955 76.174 112.376Z" fill="url(#paint43_linear_3_692)"/>
<path d="M67.7187 109.953L68.5324 109.826C68.5324 109.826 70.1168 109.97 74.4842 111.16C75.4188 111.314 76.6937 114.005 73.9542 114.111C71.2148 114.217 67.881 116.228 67.881 116.228L67.7187 109.953Z" fill="url(#paint44_linear_3_692)"/>
<path d="M39.2758 122.478C39.2758 122.478 39.6746 125.971 47.9081 125.653C56.1416 125.334 70.8491 116.902 70.7565 112.477C70.6639 108.052 65.1908 109.82 59.5242 112.378C54.741 114.536 47.3528 115.787 45.8386 116.018C43.8996 116.316 38.8078 120.8 39.2758 122.478Z" fill="url(#paint45_linear_3_692)"/>
<g style="mix-blend-mode:multiply" opacity="0.2">
<path d="M50.0484 118.1C53.8595 117.715 54.7151 115.019 59.4579 114.239C62.5293 113.733 63.6161 114.628 65.183 113.593C66.4194 112.775 67.0507 111.351 67.3545 109.804C65.2527 109.98 62.4162 111.073 59.5247 112.378C54.8789 114.475 47.7751 115.715 45.9838 115.997C45.9307 116.005 44.7294 115.582 44.7294 115.582C44.7294 115.582 43.8353 116.086 43.1942 116.484C45.6923 117.803 48.656 118.24 50.0484 118.1Z" fill="url(#paint46_linear_3_692)"/>
</g>
<defs>
<linearGradient id="paint0_linear_3_692" x1="52.275" y1="46.3566" x2="30.1037" y2="72.8579" gradientUnits="userSpaceOnUse">
<stop stop-color="#010190"/>
<stop offset="1" stop-color="#AA45A1"/>
</linearGradient>
<linearGradient id="paint1_linear_3_692" x1="49.5009" y1="44.0357" x2="27.3296" y2="70.5369" gradientUnits="userSpaceOnUse">
<stop stop-color="#010190"/>
<stop offset="1" stop-color="#AA45A1"/>
</linearGradient>
<linearGradient id="paint2_linear_3_692" x1="-11.3406" y1="114.737" x2="6.52025" y2="105.475" gradientUnits="userSpaceOnUse">
<stop stop-color="#FDA305"/>
<stop offset="1" stop-color="#FDA305"/>
</linearGradient>
<linearGradient id="paint3_linear_3_692" x1="13.1235" y1="97.1271" x2="116.283" y2="97.1271" gradientUnits="userSpaceOnUse">
<stop stop-color="#FFEFD1"/>
<stop offset="1" stop-color="white"/>
</linearGradient>
<linearGradient id="paint4_linear_3_692" x1="43.9642" y1="70.0953" x2="114.599" y2="186.25" gradientUnits="userSpaceOnUse">
<stop stop-color="#FDA305"/>
<stop offset="1" stop-color="#FDA305"/>
</linearGradient>
<linearGradient id="paint5_linear_3_692" x1="28.086" y1="80.1723" x2="99.7949" y2="198.092" gradientUnits="userSpaceOnUse">
<stop stop-color="#FDA305"/>
<stop offset="1" stop-color="#FDA305"/>
</linearGradient>
<linearGradient id="paint6_linear_3_692" x1="68.9685" y1="137.628" x2="80.0395" y2="54.372" gradientUnits="userSpaceOnUse">
<stop stop-color="#FFEFD1"/>
<stop offset="1" stop-color="white"/>
</linearGradient>
<linearGradient id="paint7_linear_3_692" x1="62.7567" y1="92.2596" x2="71.8844" y2="90.2243" gradientUnits="userSpaceOnUse">
<stop stop-color="#FDA305"/>
<stop offset="1" stop-color="#FDA305"/>
</linearGradient>
<linearGradient id="paint8_linear_3_692" x1="73.7623" y1="92.1065" x2="82.6053" y2="90.1347" gradientUnits="userSpaceOnUse">
<stop stop-color="#FDA305"/>
<stop offset="1" stop-color="#FDA305"/>
</linearGradient>
<linearGradient id="paint9_linear_3_692" x1="84.4219" y1="91.9584" x2="92.9928" y2="90.0473" gradientUnits="userSpaceOnUse">
<stop stop-color="#FDA305"/>
<stop offset="1" stop-color="#FDA305"/>
</linearGradient>
<linearGradient id="paint10_linear_3_692" x1="94.7509" y1="91.8146" x2="103.063" y2="89.9612" gradientUnits="userSpaceOnUse">
<stop stop-color="#FDA305"/>
<stop offset="1" stop-color="#FDA305"/>
</linearGradient>
<linearGradient id="paint11_linear_3_692" x1="26.7861" y1="68.7339" x2="30.0945" y2="114.564" gradientUnits="userSpaceOnUse">
<stop stop-color="#0203E3"/>
<stop offset="1" stop-color="#0203E2"/>
</linearGradient>
<linearGradient id="paint12_linear_3_692" x1="38.7727" y1="68.1442" x2="42.0096" y2="112.992" gradientUnits="userSpaceOnUse">
<stop stop-color="#0203E3"/>
<stop offset="1" stop-color="#0203E2"/>
</linearGradient>
<linearGradient id="paint13_linear_3_692" x1="50.3629" y1="67.5799" x2="53.5322" y2="111.485" gradientUnits="userSpaceOnUse">
<stop stop-color="#0203E3"/>
<stop offset="1" stop-color="#0203E2"/>
</linearGradient>
<linearGradient id="paint14_linear_3_692" x1="61.5764" y1="67.0407" x2="64.6805" y2="110.04" gradientUnits="userSpaceOnUse">
<stop stop-color="#0203E3"/>
<stop offset="1" stop-color="#0203E2"/>
</linearGradient>
<linearGradient id="paint15_linear_3_692" x1="72.4318" y1="66.5245" x2="75.4727" y2="108.652" gradientUnits="userSpaceOnUse">
<stop stop-color="#0203E3"/>
<stop offset="1" stop-color="#0203E2"/>
</linearGradient>
<linearGradient id="paint16_linear_3_692" x1="82.9449" y1="66.0296" x2="85.9255" y2="107.32" gradientUnits="userSpaceOnUse">
<stop stop-color="#0203E3"/>
<stop offset="1" stop-color="#0203E2"/>
</linearGradient>
<linearGradient id="paint17_linear_3_692" x1="93.1324" y1="65.5553" x2="96.0547" y2="106.039" gradientUnits="userSpaceOnUse">
<stop stop-color="#0203E3"/>
<stop offset="1" stop-color="#0203E2"/>
</linearGradient>
<linearGradient id="paint18_linear_3_692" x1="14.4681" y1="27.7504" x2="32.3647" y2="49.1423" gradientUnits="userSpaceOnUse">
<stop stop-color="#0203E3"/>
<stop offset="1" stop-color="#0203E2"/>
</linearGradient>
<linearGradient id="paint19_linear_3_692" x1="62.6746" y1="-1.73219" x2="82.9259" y2="111.796" gradientUnits="userSpaceOnUse">
<stop stop-color="#110FE5"/>
<stop offset="1" stop-color="#0203E3"/>
</linearGradient>
<linearGradient id="paint20_linear_3_692" x1="55.5629" y1="-1.52437" x2="76.066" y2="113.417" gradientUnits="userSpaceOnUse">
<stop stop-color="#110FE5"/>
<stop offset="1" stop-color="#0203E3"/>
</linearGradient>
<linearGradient id="paint21_linear_3_692" x1="89.2716" y1="14.26" x2="130.03" y2="62.9782" gradientUnits="userSpaceOnUse">
<stop stop-color="#0203E3"/>
<stop offset="1" stop-color="#0203E2"/>
</linearGradient>
<linearGradient id="paint22_linear_3_692" x1="86.3717" y1="37.7558" x2="126.285" y2="38.7866" gradientUnits="userSpaceOnUse">
<stop stop-color="#010190"/>
<stop offset="1" stop-color="#AA45A1"/>
</linearGradient>
<linearGradient id="paint23_linear_3_692" x1="90.4997" y1="1.85196" x2="103.722" y2="75.9765" gradientUnits="userSpaceOnUse">
<stop stop-color="#FDB434"/>
<stop offset="1" stop-color="#FDA305"/>
</linearGradient>
<linearGradient id="paint24_linear_3_692" x1="98.3252" y1="11.3926" x2="108.081" y2="66.0851" gradientUnits="userSpaceOnUse">
<stop stop-color="#FDB434"/>
<stop offset="1" stop-color="#FDA305"/>
</linearGradient>
<linearGradient id="paint25_linear_3_692" x1="23.4392" y1="82.7414" x2="75.8334" y2="196.182" gradientUnits="userSpaceOnUse">
<stop stop-color="#FDB434"/>
<stop offset="1" stop-color="#FDA305"/>
</linearGradient>
<linearGradient id="paint26_linear_3_692" x1="29.5885" y1="79.9014" x2="81.9827" y2="193.341" gradientUnits="userSpaceOnUse">
<stop stop-color="#FDB434"/>
<stop offset="1" stop-color="#FDA305"/>
</linearGradient>
<linearGradient id="paint27_linear_3_692" x1="23.4392" y1="82.7415" x2="75.8334" y2="196.182" gradientUnits="userSpaceOnUse">
<stop stop-color="#FDB434"/>
<stop offset="1" stop-color="#FDA305"/>
</linearGradient>
<linearGradient id="paint28_linear_3_692" x1="14.2233" y1="105.439" x2="62.7477" y2="105.439" gradientUnits="userSpaceOnUse">
<stop stop-color="#FDB434"/>
<stop offset="1" stop-color="#FDA305"/>
</linearGradient>
<linearGradient id="paint29_linear_3_692" x1="89.1241" y1="132.277" x2="96.3556" y2="123.948" gradientUnits="userSpaceOnUse">
<stop stop-color="#0203D7"/>
<stop offset="1" stop-color="#5C3B03"/>
</linearGradient>
<linearGradient id="paint30_linear_3_692" x1="71.2479" y1="105.288" x2="149.931" y2="206.197" gradientUnits="userSpaceOnUse">
<stop stop-color="#FDB434"/>
<stop offset="1" stop-color="#FDA305"/>
</linearGradient>
<linearGradient id="paint31_linear_3_692" x1="39.5995" y1="109.696" x2="96.0254" y2="135.728" gradientUnits="userSpaceOnUse">
<stop stop-color="#010190"/>
<stop offset="1" stop-color="#160CE5"/>
</linearGradient>
<linearGradient id="paint32_linear_3_692" x1="19.608" y1="123.84" x2="68.7508" y2="111.399" gradientUnits="userSpaceOnUse">
<stop stop-color="#010190"/>
<stop offset="1" stop-color="#AA45A1"/>
</linearGradient>
<linearGradient id="paint33_linear_3_692" x1="61.1125" y1="130.116" x2="46.7528" y2="100.791" gradientUnits="userSpaceOnUse">
<stop stop-color="#110FE5"/>
<stop offset="1" stop-color="#0203E3"/>
</linearGradient>
<linearGradient id="paint34_linear_3_692" x1="40.1394" y1="117.475" x2="33.5588" y2="96.7543" gradientUnits="userSpaceOnUse">
<stop stop-color="#110FE5"/>
<stop offset="1" stop-color="#0203E3"/>
</linearGradient>
<linearGradient id="paint35_linear_3_692" x1="40.1394" y1="117.475" x2="33.5593" y2="96.7548" gradientUnits="userSpaceOnUse">
<stop stop-color="#110FE5"/>
<stop offset="1" stop-color="#0203E3"/>
</linearGradient>
<linearGradient id="paint36_linear_3_692" x1="38.1714" y1="110.777" x2="63.8139" y2="102.154" gradientUnits="userSpaceOnUse">
<stop stop-color="#FDA305"/>
<stop offset="1" stop-color="#FDA305"/>
</linearGradient>
<linearGradient id="paint37_linear_3_692" x1="35.2465" y1="120.443" x2="28.3227" y2="98.6417" gradientUnits="userSpaceOnUse">
<stop offset="0.28" stop-color="#110FE5"/>
<stop offset="1" stop-color="#0203E3"/>
</linearGradient>
<linearGradient id="paint38_linear_3_692" x1="31.8688" y1="93.9838" x2="33.168" y2="84.0736" gradientUnits="userSpaceOnUse">
<stop stop-color="#FDA305"/>
<stop offset="1" stop-color="#FDA305"/>
</linearGradient>
<linearGradient id="paint39_linear_3_692" x1="28.9782" y1="92.8058" x2="36.6376" y2="79.417" gradientUnits="userSpaceOnUse">
<stop stop-color="#010190"/>
<stop offset="1" stop-color="#160CE5"/>
</linearGradient>
<linearGradient id="paint40_linear_3_692" x1="33.4573" y1="85.9898" x2="31.893" y2="100.749" gradientUnits="userSpaceOnUse">
<stop stop-color="#FDA305"/>
<stop offset="1" stop-color="#FDA305"/>
</linearGradient>
<linearGradient id="paint41_linear_3_692" x1="45.9938" y1="108.515" x2="63.8556" y2="107.407" gradientUnits="userSpaceOnUse">
<stop stop-color="#0203D7"/>
<stop offset="1" stop-color="#5C3B03"/>
</linearGradient>
<linearGradient id="paint42_linear_3_692" x1="74.0613" y1="113.679" x2="82.2635" y2="110.298" gradientUnits="userSpaceOnUse">
<stop stop-color="#0203D7"/>
<stop offset="1" stop-color="#5C3B03"/>
</linearGradient>
<linearGradient id="paint43_linear_3_692" x1="72.3556" y1="109.663" x2="166.227" y2="197.03" gradientUnits="userSpaceOnUse">
<stop stop-color="#FDB434"/>
<stop offset="1" stop-color="#FDA305"/>
</linearGradient>
<linearGradient id="paint44_linear_3_692" x1="35.6598" y1="118.159" x2="76.3178" y2="111.582" gradientUnits="userSpaceOnUse">
<stop stop-color="#010190"/>
<stop offset="1" stop-color="#160CE5"/>
</linearGradient>
<linearGradient id="paint45_linear_3_692" x1="20.4127" y1="127.019" x2="69.5559" y2="114.577" gradientUnits="userSpaceOnUse">
<stop stop-color="#010190"/>
<stop offset="1" stop-color="#AA45A1"/>
</linearGradient>
<linearGradient id="paint46_linear_3_692" x1="37.7743" y1="119.545" x2="67.4435" y2="111.17" gradientUnits="userSpaceOnUse">
<stop stop-color="#010190"/>
<stop offset="1" stop-color="#160CE5"/>
</linearGradient>
</defs>
</svg>
