<svg width="26" height="22" viewBox="0 0 26 22" fill="none" xmlns="http://www.w3.org/2000/svg">
<path d="M25.9363 3.60427C25.8283 3.05817 25.5846 2.54203 25.2291 2.10811C25.1569 2.01701 25.0814 1.93596 24.9988 1.85374C24.3664 1.21796 23.4867 0.853302 22.5852 0.853302H3.41473C2.50316 0.853302 1.64582 1.20877 1.00064 1.8541C0.918988 1.93555 0.843273 2.01741 0.76832 2.11141C0.414375 2.5435 0.171793 3.05893 0.0663203 3.6058C0.0222422 3.82055 0 4.04308 0 4.26819V17.7322C0 18.2006 0.0951641 18.6567 0.283816 19.0903C0.447078 19.4754 0.694789 19.8405 1.00044 20.146C1.07743 20.2226 1.1539 20.2933 1.23556 20.3622C1.84666 20.8683 2.62047 21.1468 3.41473 21.1468H22.5852C23.3846 21.1468 24.1576 20.8672 24.7671 20.3566C24.8485 20.2907 24.924 20.2215 24.9996 20.146C25.295 19.8508 25.5298 19.5117 25.6986 19.1378L25.7209 19.0844C25.906 18.659 26 18.2044 26 17.7322V4.26819C26 4.04602 25.9786 3.82202 25.9363 3.60427ZM1.76836 3.03263C1.81665 2.96194 1.8783 2.88938 1.95696 2.81011C2.34741 2.41985 2.86523 2.2051 3.41468 2.2051H22.5851C23.1394 2.2051 23.6574 2.42021 24.0435 2.81087C24.1102 2.87826 24.1739 2.95306 24.2294 3.02781L24.376 3.22484L14.1436 12.1428C13.8281 12.4194 13.422 12.5716 12.9998 12.5716C12.5819 12.5716 12.1761 12.4197 11.8569 12.1432L1.63465 3.22738L1.76836 3.03263ZM1.35865 17.8511C1.35312 17.8144 1.35185 17.7737 1.35185 17.7322V4.54698L9.29251 11.4741L1.43198 18.3276L1.35865 17.8511ZM23.6082 19.5231C23.3008 19.7005 22.9469 19.7945 22.5852 19.7945H3.41473C3.05282 19.7945 2.69902 19.7005 2.3919 19.5231L2.07055 19.3369L10.1923 12.259L11.0824 13.0332C11.6163 13.4968 12.2972 13.7523 12.9999 13.7523C13.7053 13.7523 14.3873 13.4968 14.9209 13.0332L15.8106 12.2587L23.9295 19.3373L23.6082 19.5231ZM24.6478 17.7322C24.6478 17.773 24.647 17.8133 24.6419 17.8492L24.5715 18.3302L16.7076 11.4778L24.6478 4.55033V17.7322Z" fill="#735E3A"/>
</svg>
