<svg width="23" height="33" viewBox="0 0 23 33" fill="none" xmlns="http://www.w3.org/2000/svg">
<path d="M19.5612 0.375H3.43616C1.95266 0.375 0.75 1.579 0.75 3.0625V29.9375C0.75 31.421 1.95266 32.625 3.43616 32.625H19.5612C21.046 32.625 22.25 31.421 22.25 29.9375V3.0625C22.25 1.579 21.046 0.375 19.5612 0.375ZM7.46875 1.71875H14.1875L14.2708 3.0625H7.46875V1.71875ZM11.4718 30.6094C10.73 30.6094 10.128 30.0087 10.128 29.2656C10.128 28.5225 10.73 27.9219 11.4718 27.9219C12.2149 27.9219 12.8155 28.5225 12.8155 29.2656C12.8155 30.0087 12.2135 30.6094 11.4718 30.6094ZM19.5612 25.9062H3.43616L3.46438 4.40625H19.5612V25.9062Z" fill="#735E3A"/>
</svg>
